<?xml version="1.0" standalone="no"?>
<!DOCTYPE svg PUBLIC "-//W3C//DTD SVG 20010904//EN"
 "http://www.w3.org/TR/2001/REC-SVG-20010904/DTD/svg10.dtd">
<svg version="1.0" xmlns="http://www.w3.org/2000/svg"
 width="506.000000pt" height="506.000000pt" viewBox="0 0 506.000000 506.000000"
 preserveAspectRatio="xMidYMid meet">
<metadata>
Created by potrace 1.11, written by Peter Selinger 2001-2013
</metadata>
<g transform="translate(0.000000,506.000000) scale(0.100000,-0.100000)"
fill="#000000" stroke="none">
<path d="M979 5056 c-2 -2 -22 -6 -44 -9 -403 -55 -768 -372 -887 -767 -48
-162 -47 -124 -44 -1780 1 -855 5 -1571 10 -1590 40 -172 90 -293 173 -419
168 -253 456 -436 758 -481 72 -11 3159 -8 3195 3 14 4 37 9 51 12 57 11 168
49 244 85 268 127 487 381 574 664 21 68 24 81 41 181 11 63 7 3147 -4 3195
-26 113 -63 217 -108 308 -28 56 -55 102 -59 102 -5 0 -9 5 -9 11 0 27 -145
185 -233 254 -27 21 -36 27 -102 71 -99 66 -283 133 -422 153 -63 9 -3124 16
-3134 7z"/>
</g>
</svg>
